<?xml version="1.0" encoding="UTF-8"?>
<svg version="1.1" xmlns="http://www.w3.org/2000/svg" width="312" height="55">
<path d="M0 0 C102.96 0 205.92 0 312 0 C312 18.15 312 36.3 312 55 C209.04 55 106.08 55 0 55 C0 36.85 0 18.7 0 0 Z " fill="#020002" transform="translate(0,0)"/>
<path d="M0 0 C2.64 0 5.28 0 8 0 C8 2.31 8 4.62 8 7 C10.64 7 13.28 7 16 7 C16 20.2 16 33.4 16 47 C5.44 47 -5.12 47 -16 47 C-16 33.8 -16 20.6 -16 7 C-10.72 7 -5.44 7 0 7 C0 4.69 0 2.38 0 0 Z " fill="#E7EDE7" transform="translate(255,1)"/>
<path d="M0 0 C10.56 0 21.12 0 32 0 C32 13.2 32 26.4 32 40 C29.36 40 26.72 40 24 40 C24 34.72 24 29.44 24 24 C18.72 24 13.44 24 8 24 C8 29.28 8 34.56 8 40 C5.36 40 2.72 40 0 40 C0 26.8 0 13.6 0 0 Z " fill="#848784" transform="translate(7,8)"/>
<path d="M0 0 C10.56 0 21.12 0 32 0 C32 7.92 32 15.84 32 24 C29.36 24 26.72 24 24 24 C24 18.72 24 13.44 24 8 C18.72 8 13.44 8 8 8 C8 13.61 8 19.22 8 25 C13.28 25 18.56 25 24 25 C24 27.31 24 29.62 24 32 C26.64 32 29.28 32 32 32 C32 34.64 32 37.28 32 40 C26.72 40 21.44 40 16 40 C16 37.36 16 34.72 16 32 C13.36 32 10.72 32 8 32 C8 34.64 8 37.28 8 40 C5.36 40 2.72 40 0 40 C0 26.8 0 13.6 0 0 Z " fill="#848784" transform="translate(47,8)"/>
<path d="M0 0 C10.56 0 21.12 0 32 0 C32 13.2 32 26.4 32 40 C29.36 40 26.72 40 24 40 C24 29.44 24 18.88 24 8 C18.72 8 13.44 8 8 8 C8 18.56 8 29.12 8 40 C5.36 40 2.72 40 0 40 C0 26.8 0 13.6 0 0 Z " fill="#E6EDE6" transform="translate(199,8)"/>
<path d="M0 0 C2.64 0 5.28 0 8 0 C8 10.56 8 21.12 8 32 C13.28 32 18.56 32 24 32 C24 21.44 24 10.88 24 0 C26.64 0 29.28 0 32 0 C32 13.2 32 26.4 32 40 C21.44 40 10.88 40 0 40 C0 26.8 0 13.6 0 0 Z " fill="#838783" transform="translate(127,8)"/>
<path d="M0 0 C7.92 0 15.84 0 24 0 C24 2.64 24 5.28 24 8 C18.72 8 13.44 8 8 8 C8 15.92 8 23.84 8 32 C13.28 32 18.56 32 24 32 C24 34.64 24 37.28 24 40 C16.08 40 8.16 40 0 40 C0 26.8 0 13.6 0 0 Z " fill="#848784" transform="translate(87,8)"/>
<path d="M0 0 C5.28 0 10.56 0 16 0 C16 10.56 16 21.12 16 32 C10.72 32 5.44 32 0 32 C0 21.44 0 10.88 0 0 Z " fill="#222222" transform="translate(135,8)"/>
<path d="M0 0 C2.64 0 5.28 0 8 0 C8 7.59 8 15.18 8 23 C0.08 23 -7.84 23 -16 23 C-16 17.72 -16 12.44 -16 7 C-10.72 7 -5.44 7 0 7 C0 4.69 0 2.38 0 0 Z " fill="#222222" transform="translate(111,17)"/>
<path d="M0 0 C5.28 0 10.56 0 16 0 C16 7.92 16 15.84 16 24 C10.72 24 5.44 24 0 24 C0 16.08 0 8.16 0 0 Z " fill="#3B3B3B" transform="translate(247,16)"/>
<path d="M0 0 C2.64 0 5.28 0 8 0 C8 13.2 8 26.4 8 40 C5.36 40 2.72 40 0 40 C0 26.8 0 13.6 0 0 Z " fill="#E4EDE4" transform="translate(175,8)"/>
<path d="M0 0 C5.28 0 10.56 0 16 0 C16 5.61 16 11.22 16 17 C10.72 17 5.44 17 0 17 C0 11.39 0 5.78 0 0 Z " fill="#030003" transform="translate(55,16)"/>
<path d="M0 0 C2.64 0 5.28 0 8 0 C8 7.59 8 15.18 8 23 C5.36 23 2.72 23 0 23 C0 15.41 0 7.82 0 0 Z " fill="#828782" transform="translate(111,17)"/>
<path d="M0 0 C5.28 0 10.56 0 16 0 C16 2.64 16 5.28 16 8 C10.72 8 5.44 8 0 8 C0 5.36 0 2.72 0 0 Z " fill="#050005" transform="translate(247,16)"/>
<path d="M0 0 C5.28 0 10.56 0 16 0 C16 2.64 16 5.28 16 8 C10.72 8 5.44 8 0 8 C0 5.36 0 2.72 0 0 Z " fill="#030003" transform="translate(15,16)"/>
<path d="M0 0 C2.64 0 5.28 0 8 0 C8 4.95 8 9.9 8 15 C5.36 15 2.72 15 0 15 C0 10.05 0 5.1 0 0 Z " fill="#E4EDE4" transform="translate(295,33)"/>
<path d="M0 0 C2.64 0 5.28 0 8 0 C8 4.95 8 9.9 8 15 C5.36 15 2.72 15 0 15 C0 10.05 0 5.1 0 0 Z " fill="#E4EDE4" transform="translate(279,33)"/>
<path d="M0 0 C2.64 0 5.28 0 8 0 C8 4.95 8 9.9 8 15 C5.36 15 2.72 15 0 15 C0 10.05 0 5.1 0 0 Z " fill="#E4EDE4" transform="translate(287,17)"/>
<path d="M0 0 C2.64 0 5.28 0 8 0 C8 2.64 8 5.28 8 8 C5.36 8 2.72 8 0 8 C0 5.36 0 2.72 0 0 Z " fill="#E4EDE4" transform="translate(295,8)"/>
<path d="M0 0 C2.64 0 5.28 0 8 0 C8 2.64 8 5.28 8 8 C5.36 8 2.72 8 0 8 C0 5.36 0 2.72 0 0 Z " fill="#E4EDE4" transform="translate(279,8)"/>
</svg>
